<svg xmlns="http://www.w3.org/2000/svg" xmlns:xlink="http://www.w3.org/1999/xlink" width="40px" height="41px" viewBox="0 0 40 41" class="img-svg replaced-svg">
<path fill-rule="evenodd" fill="rgb(130, 199, 78)" d="M23.448,41.000 L23.448,24.600 L40.000,24.600 L40.000,41.000 L23.448,41.000 ZM38.621,25.966 L32.414,25.966 L32.414,34.567 L35.374,31.633 L36.350,32.600 L31.724,37.183 L27.099,32.600 L28.074,31.633 L31.034,34.567 L31.034,25.966 L24.828,25.966 L24.828,39.633 L38.621,39.633 L38.621,25.966 ZM7.586,31.433 L17.241,31.433 C17.622,31.433 17.931,31.739 17.931,32.116 C17.931,32.494 17.622,32.800 17.241,32.800 L7.586,32.800 C7.205,32.800 6.896,32.494 6.896,32.116 C6.896,31.739 7.205,31.433 7.586,31.433 ZM7.586,25.966 L19.310,25.966 C19.691,25.966 20.000,26.273 20.000,26.650 C20.000,27.027 19.691,27.333 19.310,27.333 L7.586,27.333 C7.205,27.333 6.896,27.027 6.896,26.650 C6.896,26.273 7.205,25.966 7.586,25.966 ZM24.828,21.866 L7.586,21.866 C7.205,21.866 6.896,21.560 6.896,21.183 C6.896,20.806 7.205,20.500 7.586,20.500 L24.828,20.500 C25.208,20.500 25.517,20.806 25.517,21.183 C25.517,21.560 25.208,21.866 24.828,21.866 ZM7.586,10.933 C7.205,10.933 6.896,10.627 6.896,10.250 C6.896,9.873 7.205,9.566 7.586,9.566 L14.483,9.566 C14.863,9.566 15.172,9.873 15.172,10.250 C15.172,10.627 14.863,10.933 14.483,10.933 L7.586,10.933 ZM25.517,15.716 C25.517,16.094 25.208,16.400 24.828,16.400 L7.586,16.400 C7.205,16.400 6.896,16.094 6.896,15.716 C6.896,15.339 7.205,15.033 7.586,15.033 L24.828,15.033 C25.208,15.033 25.517,15.339 25.517,15.716 ZM31.034,10.933 L21.379,10.933 L21.379,1.366 L1.379,1.366 L1.379,39.633 L21.379,39.633 L21.379,41.000 L-0.000,41.000 L-0.000,-0.000 L22.354,-0.000 L32.414,9.967 L32.414,22.550 L31.034,22.550 L31.034,10.933 ZM22.759,2.333 L22.759,9.566 L30.059,9.566 L22.759,2.333 Z"></path>
</svg>