<svg xmlns="http://www.w3.org/2000/svg" xmlns:xlink="http://www.w3.org/1999/xlink" width="48px" height="44px" viewBox="0 0 48 44" class="img-svg replaced-svg">
<path fill-rule="evenodd" fill="rgb(81, 82, 82)" d="M47.205,43.999 L0.795,43.999 C0.356,43.999 -0.000,43.647 -0.000,43.213 L-0.000,18.880 C-0.000,18.606 0.141,18.366 0.355,18.225 L6.483,14.210 L6.483,0.785 C6.483,0.351 6.839,-0.001 7.278,-0.001 L40.720,-0.001 C41.159,-0.001 41.515,0.351 41.515,0.785 L41.515,14.209 L47.644,18.225 C47.858,18.366 47.999,18.606 47.999,18.880 L47.999,43.213 C47.999,43.647 47.644,43.999 47.205,43.999 ZM44.567,42.427 L23.999,28.952 L3.432,42.427 L44.567,42.427 ZM6.483,16.095 L3.433,18.094 L6.483,18.094 L6.483,16.095 ZM6.483,19.666 L3.990,19.666 L6.483,20.973 L6.483,19.666 ZM1.590,20.186 L1.590,41.749 L19.871,29.771 L1.590,20.186 ZM39.925,1.570 L8.074,1.570 L8.074,21.807 L21.380,28.783 L23.560,27.355 C23.826,27.180 24.172,27.180 24.439,27.355 L26.619,28.783 L39.925,21.807 L39.925,1.570 ZM41.515,16.095 L41.515,18.094 L44.567,18.094 L41.515,16.095 ZM41.515,19.666 L41.515,20.974 L44.009,19.666 L41.515,19.666 ZM46.410,20.186 L28.127,29.771 L46.410,41.750 L46.410,20.186 ZM16.870,13.617 L16.870,13.385 C16.870,9.500 20.068,6.340 23.999,6.340 C27.930,6.340 31.128,9.500 31.128,13.385 L31.128,13.965 C31.128,15.485 29.877,16.722 28.339,16.722 C27.339,16.722 26.460,16.198 25.968,15.414 C25.363,15.939 24.572,16.258 23.706,16.258 C21.812,16.258 20.272,14.735 20.272,12.864 C20.272,10.992 21.812,9.469 23.706,9.469 C25.599,9.469 27.140,10.992 27.140,12.864 L27.140,13.965 C27.140,14.618 27.677,15.150 28.339,15.150 C29.000,15.150 29.538,14.618 29.538,13.965 L29.538,13.385 C29.538,10.367 27.053,7.911 23.999,7.911 C20.945,7.911 18.461,10.367 18.461,13.385 L18.461,13.617 C18.461,16.636 20.945,19.092 23.999,19.092 L30.333,19.092 C30.772,19.092 31.128,19.444 31.128,19.877 C31.128,20.311 30.772,20.663 30.333,20.663 L23.999,20.663 C20.068,20.663 16.870,17.503 16.870,13.617 ZM23.706,11.041 C22.689,11.041 21.862,11.859 21.862,12.864 C21.862,13.869 22.689,14.686 23.706,14.686 C24.723,14.686 25.550,13.869 25.550,12.864 C25.550,11.859 24.723,11.041 23.706,11.041 Z"></path>
</svg>