<svg xmlns="http://www.w3.org/2000/svg" xmlns:xlink="http://www.w3.org/1999/xlink" width="123px" height="26px" class="img-svg replaced-svg" viewBox="0 0 26px 123px">
<path fill-rule="evenodd" fill="#dfdfdf" d="M118.321,12.570 C116.861,12.570 115.800,11.986 114.851,11.209 L115.589,10.245 C116.506,11.036 117.359,11.430 118.354,11.430 C120.346,11.430 121.695,9.470 121.695,6.718 L121.695,6.574 C121.084,7.539 120.072,8.348 118.513,8.348 C116.416,8.348 114.901,7.165 114.638,5.435 L115.967,5.435 C116.235,6.529 117.256,7.271 118.659,7.271 C120.064,7.271 121.041,6.445 121.350,5.435 L122.938,5.435 C122.976,5.789 122.996,6.169 122.996,6.574 C122.996,10.087 121.100,12.570 118.321,12.570 ZM118.595,2.223 C117.091,2.223 116.124,3.193 115.933,4.402 L114.625,4.402 C114.857,2.531 116.435,1.117 118.642,1.117 C120.602,1.117 122.185,2.042 122.761,4.402 L121.429,4.402 C121.258,3.159 120.144,2.223 118.595,2.223 ZM106.492,12.570 C105.031,12.570 103.971,11.986 103.023,11.209 L103.762,10.245 C104.678,11.036 105.530,11.430 106.525,11.430 C108.517,11.430 109.868,9.470 109.868,6.718 L109.868,6.574 C109.257,7.539 108.245,8.348 106.687,8.348 C104.588,8.348 103.073,7.165 102.809,5.435 L104.140,5.435 C104.406,6.529 105.430,7.271 106.830,7.271 C108.237,7.271 109.212,6.445 109.520,5.435 L111.109,5.435 C111.147,5.789 111.168,6.169 111.168,6.574 C111.168,10.087 109.273,12.570 106.492,12.570 ZM106.766,2.223 C105.263,2.223 104.295,3.193 104.106,4.402 L102.796,4.402 C103.029,2.531 104.606,1.117 106.815,1.117 C108.772,1.117 110.356,2.042 110.934,4.402 L109.600,4.402 C109.429,3.159 108.315,2.223 106.766,2.223 ZM97.420,2.415 L95.299,3.065 L94.993,2.050 L97.739,1.117 L98.673,1.117 L98.673,12.271 L97.420,12.271 L97.420,2.415 ZM78.984,19.181 C75.794,24.158 71.264,25.520 67.387,25.520 L66.996,25.520 C66.752,25.520 66.552,25.324 66.552,25.083 L66.552,20.812 C66.552,20.571 66.752,20.373 66.996,20.373 L67.832,20.373 C70.480,20.373 72.898,18.948 74.458,16.607 C75.649,14.820 83.906,0.499 83.906,0.499 C84.027,0.290 84.298,0.217 84.510,0.337 L88.267,2.473 C88.479,2.593 88.553,2.863 88.432,3.072 C88.432,3.072 81.210,15.709 78.984,19.181 ZM71.178,15.623 C71.056,15.832 70.855,15.832 70.734,15.623 L63.323,3.071 C63.200,2.862 63.274,2.593 63.485,2.473 L67.242,0.337 C67.454,0.217 67.727,0.289 67.849,0.497 L73.751,10.476 C73.873,10.684 73.873,11.025 73.751,11.234 L71.178,15.623 ZM56.976,25.520 L52.753,25.520 C52.482,25.520 52.261,25.302 52.261,25.036 L52.261,12.643 C52.261,12.376 52.446,12.037 52.670,11.889 L57.060,9.000 C57.284,8.852 57.468,8.949 57.468,9.215 L57.468,25.036 C57.468,25.302 57.247,25.520 56.976,25.520 ZM43.331,14.415 C43.110,14.570 42.750,14.570 42.529,14.415 L28.792,4.758 C28.573,4.603 28.530,4.305 28.697,4.097 L31.342,0.805 C31.509,0.595 31.827,0.552 32.046,0.708 L42.531,8.136 C42.751,8.291 43.109,8.291 43.329,8.134 L53.717,0.709 C53.936,0.553 54.255,0.594 54.426,0.800 L57.158,4.101 C57.328,4.307 57.288,4.603 57.068,4.758 L43.331,14.415 ZM33.119,11.889 C33.343,12.037 33.529,12.376 33.529,12.643 L33.529,25.036 C33.529,25.302 33.307,25.520 33.037,25.520 L28.813,25.520 C28.542,25.520 28.321,25.302 28.321,25.036 L28.321,9.215 C28.321,8.949 28.505,8.852 28.730,9.000 L33.119,11.889 ZM12.993,25.988 C6.514,25.988 1.113,21.363 0.012,15.291 C-0.037,14.850 0.319,14.708 0.494,14.708 L4.796,14.708 C5.075,14.708 5.251,14.887 5.287,15.052 C6.207,18.394 9.311,20.861 12.993,20.861 C15.609,20.861 17.934,19.614 19.391,17.693 C19.641,17.386 19.983,17.493 20.135,17.643 C20.257,17.763 22.342,19.817 23.140,20.603 C23.352,20.810 23.291,21.118 23.171,21.247 C20.750,24.139 17.088,25.988 12.993,25.988 ZM20.146,8.344 C19.866,8.624 19.528,8.487 19.394,8.310 C17.940,6.384 15.611,5.138 12.993,5.138 C9.319,5.138 6.219,7.595 5.293,10.927 C5.258,11.084 5.105,11.290 4.818,11.290 L0.490,11.290 C0.364,11.290 -0.080,11.173 0.015,10.689 C1.206,4.641 6.520,0.010 12.993,0.010 C17.088,0.010 20.751,1.859 23.171,4.751 C23.332,4.946 23.291,5.256 23.134,5.402 C23.055,5.480 21.041,7.452 20.146,8.344 Z"></path>
</svg>